<?xml version='1.0' encoding='utf-8'?>
<svg xmlns="http://www.w3.org/2000/svg" version="1.1" viewBox="0 0 1920 1080"> <path d="m1374.5 452.5c0.031 2.439 0 5.691 0 8.131 2e-3 2e-3 12.543 15.905 17.403 23.09 4.98 7.365 11.154 17.514 15.317 25.37 3.114 5.875 6.866 13.93 9.334 20.104 2.757 6.894 6.223 16.222 7.898 23.455 1.325 5.718 2.322 13.525 2.633 19.386 0.26 4.897 0.255 11.483-0.424 16.339-0.885 6.333-3.005 14.696-5.436 20.61-2.443 5.946-6.767 13.477-10.683 18.575-3.519 4.579-9.261 9.814-13.612 13.61-2.103 1.836-5.076 4.089-7.361 5.695-1.579 1.11-3.791 2.43-5.416 3.472 0 1e-3 -1.347 6.777-1.968 9.673-0.81 3.785-1.799 8.858-2.839 12.586-0.73 2.621-1.987 6.028-2.839 8.612 1e-3 1e-3 6.585 11.57 9.031 16.72 1.993 4.196 4.37 9.927 5.942 14.298 2.781 7.733 6.059 18.224 7.858 26.242 1.74 7.755 3.448 18.261 3.985 26.19 0.721 10.633 0.866 24.981-0.735 35.518-1.444 9.498-5.186 21.89-8.798 30.793-2.484 6.122-6.638 13.96-10.265 19.482-4.988 7.596-12.538 17.23-19.13 23.485-8.201 7.782-21.165 15.763-30.555 22.06-11.752 7.88-27.721 17.977-40.099 24.831-13.41 7.426-31.821 16.379-45.871 22.509-13.094 5.712-30.976 12.336-44.446 17.094-13.126 4.636-30.756 10.494-44.161 14.245-10.581 2.962-24.851 6.339-35.614 8.548-15.257 3.132-35.746 6.643-51.192 8.631-13.367 1.721-31.279 3.396-44.74 4.044-15.149 0.729-35.388 0.388-50.553 0.253-17.583-0.157-41.039-0.405-58.597-1.361-20.115-1.094-46.897-3.409-66.901-5.793-21.441-2.554-50.01-6.467-71.155-10.844-23.095-4.781-53.627-12.633-76.014-20.054-18.365-6.087-42.624-15.19-59.895-23.909-12.136-6.127-28.008-15.199-38.649-23.658-8.908-7.081-19.804-17.889-26.703-26.938-6.292-8.252-13.317-20.37-17.315-29.947-3.964-9.498-7.379-22.937-9.045-33.094-1.375-8.376-1.727-19.751-1.766-28.24-0.038-8.364 0.586-19.525 1.481-27.841 0.789-7.333 2.349-17.064 3.914-24.272 0.78-3.592 2.212-8.286 3.161-11.838-1e-3 -1e-3 -4.637-10.043-6.234-14.5-2.169-6.053-4.412-14.351-5.888-20.609-0.711-3.013-1.56-7.061-1.959-10.13-0.304-2.327-0.391-5.461-0.558-7.801-1e-3 -1e-3 -10.902-5.961-15.156-9.138-4.986-3.724-11.182-9.349-15.268-14.042-4.086-4.694-8.949-11.527-11.806-17.055-2.773-5.365-5.431-13.055-6.889-18.916-1.265-5.08-2.309-12.044-2.462-17.277-0.139-4.764 0.498-11.134 1.287-15.834 1.086-6.465 3.383-14.948 5.56-21.131 2.087-5.928 5.535-13.609 8.526-19.136 3.286-6.074 8.491-13.707 12.504-19.326 2.859-4.002 6.863-9.211 10.094-12.92 2.648-3.04 9.336-9.666 9.336-9.666-1.005-7.437-2.868-17.3-3.348-24.788-0.695-10.816-0.409-25.317 0.41-36.124 0.885-11.678 3.048-27.196 5.483-38.651 2.551-11.999 7.295-27.701 11.247-39.314 3.635-10.681 9.107-24.727 13.831-34.973 5.879-12.75 14.772-29.271 22.022-41.295 5.967-9.898 14.627-22.677 21.535-31.942 6.427-8.62 15.562-19.699 22.744-27.701 8.129-9.058 19.49-20.682 28.43-28.94 9.956-9.197 23.769-20.913 34.665-28.974 10.504-7.771 25.172-17.247 36.476-23.799 13.465-7.806 31.938-17.388 46.239-23.53 13.028-5.594 30.963-11.711 44.527-15.838 13.697-4.168 32.21-8.974 46.254-11.76 15.102-2.995 35.474-5.846 50.805-7.258 14.323-1.318 33.519-1.979 47.902-2.032 14.815-0.054 34.6 0.385 49.353 1.742 19.004 1.749 44.259 5.438 62.889 9.577 16.114 3.58 37.288 9.825 52.814 15.429 12.302 4.441 28.398 11.281 40.056 17.209 12.535 6.374 28.745 15.925 40.301 23.938 15.879 11.011 36.026 27.251 50.036 40.559 9.805 9.315 21.935 22.75 30.324 33.357 10.443 13.204 23.187 31.795 31.567 46.396 8.287 14.443 17.728 34.633 23.876 50.108 5.41 13.616 11.683 32.201 15.055 46.459 3.273 13.833 5.898 32.681 7.161 46.84 0.984 11.038 0.938 25.843 1.079 36.924z" fill="#e0ba78" fill-rule="evenodd"/> <path d="m1374.5 460.64v0c0-2.44 0.031-5.692 0-8.131-0.141-11.081-0.095-25.886-1.079-36.924-1.263-14.159-3.888-33.007-7.161-46.84-3.372-14.258-9.645-32.843-15.055-46.459-6.148-15.475-15.589-35.665-23.876-50.108-8.38-14.601-21.124-33.192-31.567-46.396-8.389-10.607-20.519-24.042-30.324-33.357-14.01-13.308-34.157-29.548-50.036-40.559-11.556-8.013-27.766-17.564-40.301-23.938-11.658-5.928-27.754-12.768-40.056-17.209-15.526-5.604-36.7-11.849-52.814-15.429-18.63-4.139-43.885-7.828-62.889-9.577-14.753-1.357-34.538-1.796-49.353-1.742-14.383 0.053-33.579 0.714-47.902 2.032-15.331 1.412-35.703 4.263-50.805 7.258-14.044 2.786-32.557 7.592-46.254 11.76-13.564 4.127-31.499 10.244-44.527 15.838-14.301 6.142-32.774 15.724-46.239 23.53-11.304 6.552-25.972 16.028-36.476 23.799-10.896 8.061-24.709 19.777-34.665 28.974-8.94 8.258-20.301 19.882-28.43 28.94-7.182 8.002-16.317 19.081-22.744 27.701-6.908 9.265-15.568 22.044-21.535 31.942-7.25 12.024-16.143 28.545-22.022 41.295-4.724 10.246-10.196 24.292-13.831 34.973-3.952 11.613-8.696 27.315-11.247 39.314-2.435 11.455-4.598 26.973-5.483 38.651-0.819 10.807-1.105 25.308-0.41 36.124 0.48 7.488 2.343 17.351 3.348 24.788 0 0-6.688 6.626-9.336 9.666-3.231 3.709-7.235 8.918-10.094 12.92-4.013 5.619-9.218 13.252-12.504 19.326-2.991 5.527-6.439 13.208-8.526 19.136-2.177 6.183-4.474 14.666-5.56 21.131-0.789 4.7-1.426 11.07-1.287 15.834 0.153 5.233 1.197 12.197 2.462 17.277 1.458 5.861 4.116 13.551 6.889 18.916 2.857 5.528 7.72 12.361 11.806 17.055 4.086 4.693 10.282 10.318 15.268 14.042 4.254 3.177 15.155 9.137 15.156 9.138v0c0.167 2.34 0.254 5.474 0.558 7.801 0.399 3.069 1.248 7.117 1.959 10.13 1.476 6.258 3.719 14.556 5.888 20.609 1.597 4.457 6.233 14.499 6.234 14.5v0c-0.949 3.552-2.381 8.246-3.161 11.838-1.565 7.208-3.125 16.939-3.914 24.272-0.895 8.316-1.519 19.477-1.481 27.841 0.039 8.489 0.391 19.864 1.766 28.24 1.666 10.157 5.081 23.596 9.045 33.094 3.998 9.577 11.023 21.695 17.315 29.947 6.899 9.049 17.795 19.857 26.703 26.938 10.641 8.459 26.513 17.531 38.649 23.658 17.271 8.719 41.53 17.822 59.895 23.909 22.387 7.421 52.919 15.273 76.014 20.054 21.145 4.377 49.714 8.29 71.155 10.844 20.004 2.384 46.786 4.699 66.901 5.793 17.558 0.956 41.014 1.204 58.597 1.361 15.165 0.135 35.404 0.476 50.553-0.253 13.461-0.648 31.373-2.323 44.74-4.044 15.446-1.988 35.935-5.499 51.192-8.631 10.763-2.209 25.033-5.586 35.614-8.548 13.405-3.751 31.035-9.609 44.161-14.245 13.47-4.758 31.352-11.382 44.446-17.094 14.05-6.13 32.461-15.083 45.871-22.509 12.378-6.854 28.347-16.951 40.099-24.831 9.39-6.297 22.354-14.278 30.555-22.06 6.592-6.255 14.142-15.889 19.13-23.485 3.627-5.522 7.781-13.36 10.265-19.482 3.612-8.903 7.354-21.295 8.798-30.793 1.601-10.537 1.456-24.885 0.735-35.518-0.537-7.929-2.245-18.435-3.985-26.19-1.799-8.018-5.077-18.509-7.858-26.242-1.572-4.371-3.949-10.102-5.942-14.298-2.446-5.15-9.03-16.719-9.031-16.72v0c0.852-2.584 2.109-5.991 2.839-8.612 1.04-3.728 2.029-8.801 2.839-12.586 0.621-2.896 1.968-9.672 1.968-9.673v0c1.625-1.042 3.837-2.362 5.416-3.472 2.285-1.606 5.258-3.859 7.361-5.695 4.351-3.796 10.093-9.031 13.612-13.61 3.916-5.098 8.24-12.629 10.683-18.575 2.431-5.914 4.551-14.277 5.436-20.61 0.679-4.856 0.684-11.442 0.424-16.339-0.311-5.861-1.308-13.668-2.633-19.386-1.675-7.233-5.141-16.561-7.898-23.455-2.468-6.174-6.22-14.229-9.334-20.104-4.163-7.856-10.337-18.005-15.317-25.37-4.86-7.185-17.401-23.088-17.403-23.09" fill="none" stroke="#c48450" stroke-linecap="round" stroke-linejoin="round" stroke-width="10"/> <clipPath id="d"> <path d="m1341.8 715.79c-5.224-10.515-15.434-22.636-22.049-32.337-4e-3 3e-3 -29.97 27.429-44.586 36.747-34.005 21.678-84.343 42.289-122.49 55.366-26.642 9.132-63.328 18.057-91.133 22.538-43.821 7.062-103.22 11.136-147.6 10.253-32.981-0.657-76.904-5.544-109.36-11.418-29.128-5.27-67.402-15.457-95.544-24.637-16.066-5.24-37.505-12.633-52.482-20.46-8.782-4.589-19.573-12.331-27.621-18.112-5.738-4.121-12.995-10.142-18.564-14.489-2.578 10.108-6.856 23.407-8.593 33.692-2.278 13.497-4.252 31.804-3.654 45.479 0.463 10.604 2.141 24.916 5.685 34.921 3.37 9.514 9.908 21.723 16.648 29.236 10.876 12.124 30.299 23.19 44.667 30.861 21.229 11.334 51.756 22.105 74.878 28.78 29.193 8.427 69.357 14.972 99.442 19.231 27.563 3.903 64.599 7.172 92.407 8.444 27.353 1.25 63.952 1.901 91.269 0.038 27.866-1.9 64.908-6.907 92.23-12.702 22.419-4.754 51.786-13.518 73.452-20.986 19.727-6.8 45.792-16.799 64.473-26.094 19.049-9.479 43.669-23.879 60.862-36.413 9.582-6.985 23.498-15.842 29.952-25.79 6.682-10.301 10.355-27.024 11.663-39.233 1.317-12.294-0.611-28.988-3.121-41.095-2.047-9.873-6.338-22.79-10.824-31.82" fill="#f39437" fill-rule="evenodd"/> </clipPath> <path d="m1341.8 715.79c-5.224-10.515-15.434-22.636-22.049-32.337-4e-3 3e-3 -29.97 27.429-44.586 36.747-34.005 21.678-84.343 42.289-122.49 55.366-26.642 9.132-63.328 18.057-91.133 22.538-43.821 7.062-103.22 11.136-147.6 10.253-32.981-0.657-76.904-5.544-109.36-11.418-29.128-5.27-67.402-15.457-95.544-24.637-16.066-5.24-37.505-12.633-52.482-20.46-8.782-4.589-19.573-12.331-27.621-18.112-5.738-4.121-12.995-10.142-18.564-14.489-2.578 10.108-6.856 23.407-8.593 33.692-2.278 13.497-4.252 31.804-3.654 45.479 0.463 10.604 2.141 24.916 5.685 34.921 3.37 9.514 9.908 21.723 16.648 29.236 10.876 12.124 30.299 23.19 44.667 30.861 21.229 11.334 51.756 22.105 74.878 28.78 29.193 8.427 69.357 14.972 99.442 19.231 27.563 3.903 64.599 7.172 92.407 8.444 27.353 1.25 63.952 1.901 91.269 0.038 27.866-1.9 64.908-6.907 92.23-12.702 22.419-4.754 51.786-13.518 73.452-20.986 19.727-6.8 45.792-16.799 64.473-26.094 19.049-9.479 43.669-23.879 60.862-36.413 9.582-6.985 23.498-15.842 29.952-25.79 6.682-10.301 10.355-27.024 11.663-39.233 1.317-12.294-0.611-28.988-3.121-41.095-2.047-9.873-6.338-22.79-10.824-31.82" fill="#f39437" fill-rule="evenodd"/> <path d="m1319.8 683.46v0c6.615 9.701 16.825 21.822 22.049 32.337 4.486 9.03 8.777 21.947 10.824 31.82 2.51 12.107 4.438 28.801 3.121 41.095-1.308 12.209-4.981 28.932-11.663 39.233-6.454 9.948-20.37 18.805-29.952 25.79-17.193 12.534-41.813 26.934-60.862 36.413-18.681 9.295-44.746 19.294-64.473 26.094-21.666 7.468-51.033 16.232-73.452 20.986-27.322 5.795-64.364 10.802-92.23 12.702-27.317 1.863-63.916 1.212-91.269-0.038-27.808-1.272-64.844-4.541-92.407-8.444-30.085-4.259-70.249-10.804-99.442-19.231-23.122-6.675-53.649-17.446-74.878-28.78-14.368-7.671-33.791-18.737-44.667-30.861-6.74-7.513-13.278-19.722-16.648-29.236-3.544-10.005-5.222-24.317-5.685-34.921-0.598-13.675 1.376-31.982 3.654-45.479 1.737-10.285 6.015-23.584 8.593-33.692v0c5.569 4.347 12.826 10.368 18.564 14.489 8.048 5.781 18.839 13.523 27.621 18.112 14.977 7.827 36.416 15.22 52.482 20.46 28.142 9.18 66.416 19.367 95.544 24.637 32.461 5.874 76.384 10.761 109.36 11.418 44.378 0.883 103.78-3.191 147.6-10.253 27.805-4.481 64.491-13.406 91.133-22.538 38.148-13.077 88.486-33.688 122.49-55.366 14.616-9.318 44.582-36.744 44.586-36.747" fill="none" stroke="#67370d" stroke-linecap="round" stroke-linejoin="round" stroke-width="10"/> <path d="m1353.9 812.94c1.827-0.834 4.231-2.015 6.045-2.879 0-2e-3 3.374-19.36 3.606-27.753 0.32-11.55-0.419-27.151-3.102-38.39-3.04-12.733-10.038-29.042-16.674-40.328-5.305-9.022-15.068-19.219-21.526-27.456-3e-3 4e-3 -20.648 30.781-32.434 41.199-23.693 20.944-62.531 39.712-91.602 52.157-33.16 14.194-79.887 27.18-115.27 34.186-36.122 7.152-85.297 11.382-122.1 12.528-39.361 1.225-92.197 0.356-131.16-5.375-13.03-1.917-29.908-7.068-42.725-10.097 3.801 6.345 8.197 15.258 12.669 21.149 4.791 6.309 12.324 13.818 18.203 19.127 8.476 7.656 20.716 16.825 30.234 23.139 9.5 6.301 22.766 13.819 33.011 18.819 7.915 3.863 18.804 8.342 27.119 11.246 9.39 3.279 22.192 6.849 31.884 9.081 8.031 1.85 18.869 3.774 27.041 4.843 9.576 1.254 22.431 2.358 32.086 2.624 11.432 0.314 26.697-0.281 38.105-1.083 14.958-1.052 34.866-3.237 49.657-5.702 12.88-2.146 29.894-5.969 42.529-9.266 16.556-4.321 38.242-11.481 54.518-16.762 20.324-6.593 47.32-15.721 67.384-23.068 12.563-4.6 29.163-11.139 41.572-16.139 10.51-4.235 24.427-10.118 34.857-14.547 7.841-3.33 18.323-7.714 26.073-11.253" clip-path="url(#d)" fill="#f7a846" fill-rule="evenodd"/> <path d="m1359.9 810.06v0c-1.814 0.864-4.218 2.045-6.045 2.879-7.75 3.539-18.232 7.923-26.073 11.253-10.43 4.429-24.347 10.312-34.857 14.547-12.409 5-29.009 11.539-41.572 16.139-20.064 7.347-47.06 16.475-67.384 23.068-16.276 5.281-37.962 12.441-54.518 16.762-12.635 3.297-29.649 7.12-42.529 9.266-14.791 2.465-34.699 4.65-49.657 5.702-11.408 0.802-26.673 1.397-38.105 1.083-9.655-0.266-22.51-1.37-32.086-2.624-8.172-1.069-19.01-2.993-27.041-4.843-9.692-2.232-22.494-5.802-31.884-9.081-8.315-2.904-19.204-7.383-27.119-11.246-10.245-5-23.511-12.518-33.011-18.819-9.518-6.314-21.758-15.483-30.234-23.139-5.879-5.309-13.412-12.818-18.203-19.127-4.472-5.891-8.868-14.804-12.669-21.149v0c12.817 3.029 29.695 8.18 42.725 10.097 38.961 5.731 91.797 6.6 131.16 5.375 36.805-1.146 85.98-5.376 122.1-12.528 35.383-7.006 82.11-19.992 115.27-34.186 29.071-12.445 67.909-31.213 91.602-52.157 11.786-10.418 32.431-41.195 32.434-41.199v0c6.458 8.237 16.221 18.434 21.526 27.456 6.636 11.286 13.634 27.595 16.674 40.328 2.683 11.239 3.422 26.84 3.102 38.39-0.232 8.393-3.606 27.751-3.606 27.753" clip-path="url(#d)" fill="none" stroke="#67370d" stroke-linecap="round" stroke-linejoin="round" stroke-opacity="0" stroke-width="10"/> <path d="m1341.8 715.79c-5.224-10.515-15.434-22.636-22.048-32.337-5e-3 4e-3 -29.971 27.429-44.587 36.747-34.005 21.678-84.343 42.289-122.49 55.366-26.642 9.133-63.328 18.057-91.133 22.538-43.822 7.062-103.22 11.136-147.6 10.253-32.981-0.657-76.904-5.545-109.36-11.418-29.128-5.27-67.402-15.457-95.544-24.637-16.066-5.24-37.505-12.633-52.482-20.46-8.782-4.589-19.573-12.33-27.621-18.111-5.738-4.122-12.995-10.143-18.564-14.49-2.578 10.108-6.856 23.407-8.593 33.693-2.278 13.496-4.252 31.803-3.654 45.478 0.463 10.604 2.141 24.916 5.685 34.921 3.37 9.514 9.908 21.723 16.648 29.236 10.876 12.124 30.299 23.19 44.667 30.861 21.229 11.334 51.756 22.105 74.878 28.78 29.193 8.427 69.357 14.972 99.442 19.231 27.563 3.902 64.599 7.172 92.407 8.444 27.352 1.25 63.952 1.901 91.269 0.038 27.866-1.9 64.907-6.908 92.23-12.702 22.419-4.754 51.786-13.518 73.452-20.986 19.727-6.8 45.792-16.798 64.473-26.094 19.05-9.478 43.669-23.879 60.862-36.413 9.582-6.985 23.498-15.842 29.951-25.79 6.683-10.301 10.356-27.024 11.664-39.233 1.317-12.294-0.612-28.988-3.121-41.095-2.047-9.873-6.338-22.79-10.824-31.82" clip-path="url(#d)" fill="#f39437" fill-opacity="0" fill-rule="evenodd"/> <path d="m1319.8 683.46v0c6.614 9.701 16.824 21.822 22.048 32.337 4.486 9.03 8.777 21.947 10.824 31.82 2.509 12.107 4.438 28.801 3.121 41.095-1.308 12.209-4.981 28.932-11.664 39.233-6.453 9.948-20.369 18.805-29.951 25.79-17.193 12.534-41.812 26.935-60.862 36.413-18.681 9.296-44.746 19.294-64.473 26.094-21.666 7.468-51.033 16.232-73.452 20.986-27.323 5.794-64.364 10.802-92.23 12.702-27.317 1.863-63.917 1.212-91.269-0.038-27.808-1.272-64.844-4.542-92.407-8.444-30.085-4.259-70.249-10.804-99.442-19.231-23.122-6.675-53.649-17.446-74.878-28.78-14.368-7.671-33.791-18.737-44.667-30.861-6.74-7.513-13.278-19.722-16.648-29.236-3.544-10.005-5.222-24.317-5.685-34.921-0.598-13.675 1.376-31.982 3.654-45.478 1.737-10.286 6.015-23.585 8.593-33.693v0c5.569 4.347 12.826 10.368 18.564 14.49 8.048 5.781 18.839 13.522 27.621 18.111 14.977 7.827 36.416 15.22 52.482 20.46 28.142 9.18 66.416 19.367 95.544 24.637 32.461 5.873 76.384 10.761 109.36 11.418 44.378 0.883 103.78-3.191 147.6-10.253 27.805-4.481 64.491-13.405 91.133-22.538 38.148-13.077 88.486-33.688 122.49-55.366 14.616-9.318 44.582-36.743 44.587-36.747" clip-path="url(#d)" fill="none" stroke="#67370d" stroke-linecap="round" stroke-linejoin="round" stroke-width="10"/> <clipPath id="b"> <path d="m1339.5 628.37c1.289-11.488 0-26.973 0-38.533-7e-3 -2e-3 -48.542-21.057-70.404-19.503-31.451 2.235-66.211 32.121-95.144 44.651-36.777 15.928-85.181 40.063-124.2 49.198-40.42 9.461-96.402 11.029-137.91 11.291-36.131 0.228-84.725-1.053-120.17-8.065-42.668-8.441-94.363-39.423-137.23-46.771-19.202-3.292-45.433-1.531-64.905-2.188 0.011 14.228-2.088 33.357 0.035 47.426 2.902 19.226 8.932 45.547 19.674 61.754 9.825 14.823 29.591 29.608 44.814 38.802 31.785 19.197 80.356 33.17 116.4 42.081 42.319 10.46 100.43 17.936 144 19.466 42.925 1.509 100.36-3.076 142.88-9.133 26.706-3.804 62.032-11.299 87.9-18.95 23.938-7.081 55.25-18.795 77.828-29.444 14.636-6.903 33.737-17.201 46.989-26.487 11.524-8.074 26.711-19.602 35.678-30.445 9.205-11.131 18.555-28.398 23.786-41.862 4.826-12.423 8.502-30.044 9.989-43.288" fill="#b6671c" fill-rule="evenodd"/> </clipPath> <path d="m1339.5 628.37c1.289-11.488 0-26.973 0-38.533-7e-3 -2e-3 -48.542-21.057-70.404-19.503-31.451 2.235-66.211 32.121-95.144 44.651-36.777 15.928-85.181 40.063-124.2 49.198-40.42 9.461-96.402 11.029-137.91 11.291-36.131 0.228-84.725-1.053-120.17-8.065-42.668-8.441-94.363-39.423-137.23-46.771-19.202-3.292-45.433-1.531-64.905-2.188 0.011 14.228-2.088 33.357 0.035 47.426 2.902 19.226 8.932 45.547 19.674 61.754 9.825 14.823 29.591 29.608 44.814 38.802 31.785 19.197 80.356 33.17 116.4 42.081 42.319 10.46 100.43 17.936 144 19.466 42.925 1.509 100.36-3.076 142.88-9.133 26.706-3.804 62.032-11.299 87.9-18.95 23.938-7.081 55.25-18.795 77.828-29.444 14.636-6.903 33.737-17.201 46.989-26.487 11.524-8.074 26.711-19.602 35.678-30.445 9.205-11.131 18.555-28.398 23.786-41.862 4.826-12.423 8.502-30.044 9.989-43.288" fill="#b6671c" fill-rule="evenodd"/> <path d="m1339.5 589.84v0c0 11.56 1.289 27.045 0 38.533-1.487 13.244-5.163 30.865-9.989 43.288-5.231 13.464-14.581 30.731-23.786 41.862-8.967 10.843-24.154 22.371-35.678 30.445-13.252 9.286-32.353 19.584-46.989 26.487-22.578 10.649-53.89 22.363-77.828 29.444-25.868 7.651-61.194 15.146-87.9 18.95-42.522 6.057-99.955 10.642-142.88 9.133-43.565-1.53-101.68-9.006-144-19.466-36.048-8.911-84.619-22.884-116.4-42.081-15.223-9.194-34.989-23.979-44.814-38.802-10.742-16.207-16.772-42.528-19.674-61.754-2.123-14.069-0.024-33.198-0.035-47.426v0c19.472 0.657 45.703-1.104 64.905 2.188 42.871 7.348 94.566 38.33 137.23 46.771 35.446 7.012 84.04 8.293 120.17 8.065 41.512-0.262 97.494-1.83 137.91-11.291 39.023-9.135 87.427-33.27 124.2-49.198 28.933-12.53 63.693-42.416 95.144-44.651 21.862-1.554 70.397 19.501 70.404 19.503" fill="none" stroke="#67370d" stroke-linecap="round" stroke-linejoin="round" stroke-width="10"/> <path d="m1306.4 631.18c5.054-4.776 11.453-11.492 16.361-16.418-3e-3 -1e-3 -18.787-7.303-26.726-10.705-4.838-2.074-11.182-5.082-15.974-7.26-4e-3 4e-3 -28.141 31.936-42.112 43.564-17.491 14.558-43.564 30.496-63.411 41.629-20.17 11.312-48.119 24.615-69.704 32.915-20.11 7.732-47.566 16.804-68.735 20.814-16.754 3.174-39.582 4.925-56.634 4.841-25.849-0.129-60.364-3.771-85.709-8.854-31.043-6.226-71.242-19.845-100.92-30.87-28.631-10.636-65.814-27.448-93.204-40.963-14.722-7.264-33.66-18.284-48.086-26.12-3e-3 0-21.828 7.066-31.464 8.904-10.549 2.013-24.934 2.493-35.619 3.562 0 5e-3 2.494 36.708 7.123 51.648 5.257 16.966 15.664 38.931 26.715 52.836 4.893 6.157 13.731 12.174 19.616 17.391 3.373-5.197 7.096-12.721 11.245-17.322 4.506-4.999 11.648-10.706 17.49-14.046 7.142-4.081 17.61-8.087 25.706-9.54 8.06-1.447 19.16-0.93 27.296 0 14.234 1.628 32.579 7.536 46.377 11.395 14.286 3.997 32.963 10.572 47.171 14.84 15.486 4.653 36.107 11.012 51.821 14.828 13.223 3.21 31.057 6.629 44.462 8.97 11.769 2.056 27.491 4.794 39.392 5.851 14.858 1.319 34.793 1.805 49.702 1.343 12.798-0.397 29.89-1.609 42.519-3.72 14.512-2.427 33.488-7.682 47.567-11.959 10.12-3.074 23.425-7.812 33.233-11.772 10.906-4.403 25.209-10.89 35.668-16.269 13.402-6.893 30.803-17.01 43.482-25.156 14.267-9.166 32.7-22.324 46.046-32.785 10.425-8.171 23.538-20.029 33.523-28.733 7.789-6.79 18.275-15.741 25.785-22.839" clip-path="url(#b)" fill="#8b4e13" fill-rule="evenodd"/> <path d="m1322.8 614.76v0c-4.908 4.926-11.307 11.642-16.361 16.418-7.51 7.098-17.996 16.049-25.785 22.839-9.985 8.704-23.098 20.562-33.523 28.733-13.346 10.461-31.779 23.619-46.046 32.785-12.679 8.146-30.08 18.263-43.482 25.156-10.459 5.379-24.762 11.866-35.668 16.269-9.808 3.96-23.113 8.698-33.233 11.772-14.079 4.277-33.055 9.532-47.567 11.959-12.629 2.111-29.721 3.323-42.519 3.72-14.909 0.462-34.844-0.024-49.702-1.343-11.901-1.057-27.623-3.795-39.392-5.851-13.405-2.341-31.239-5.76-44.462-8.97-15.714-3.816-36.335-10.175-51.821-14.828-14.208-4.268-32.885-10.843-47.171-14.84-13.798-3.859-32.143-9.767-46.377-11.395-8.136-0.93-19.236-1.447-27.296 0-8.096 1.453-18.564 5.459-25.706 9.54-5.842 3.34-12.984 9.047-17.49 14.046-4.149 4.601-7.872 12.125-11.245 17.322v0c-5.885-5.217-14.723-11.234-19.616-17.391-11.051-13.905-21.458-35.87-26.715-52.836-4.629-14.94-7.123-51.643-7.123-51.648v0c10.685-1.069 25.07-1.549 35.619-3.562 9.636-1.838 31.461-8.904 31.464-8.904v0c14.426 7.836 33.364 18.856 48.086 26.12 27.39 13.515 64.573 30.327 93.204 40.963 29.68 11.025 69.879 24.644 100.92 30.87 25.345 5.083 59.86 8.725 85.709 8.854 17.052 0.084 39.88-1.667 56.634-4.841 21.169-4.01 48.625-13.082 68.735-20.814 21.585-8.3 49.534-21.603 69.704-32.915 19.847-11.133 45.92-27.071 63.411-41.629 13.971-11.628 42.108-43.56 42.112-43.564v0c4.792 2.178 11.136 5.186 15.974 7.26 7.939 3.402 26.723 10.704 26.726 10.705" clip-path="url(#b)" fill="none" stroke="#67370d" stroke-linecap="round" stroke-linejoin="round" stroke-opacity="0" stroke-width="10"/> <path d="m739.53 753.85c4.814-1.605 12.296-0.516 15.56 3.376 3.191 3.806-2.639 9.595-6.07 10.267-6.532 1.278-19.625 3.734-24.909-1.485-7.166-7.077 11.702-12.218 15.419-12.158z" clip-path="url(#b)" fill="#8b4e13" fill-rule="evenodd"/> <path d="m739.5 753.75c4.842-1.61 12.538-0.875 15.975 3.15l-0.767 0.643c-3.091-3.76-10.358-5.203-15.144-3.603l-0.064-0.19z" clip-path="url(#b)" fill="#67370d" fill-opacity="0"/> <path d="m755.47 756.9c3.29 4.26-2.736 10.327-6.357 11.078l-0.192-0.981c3.241-0.591 8.875-6.103 5.782-9.454l0.767-0.643z" clip-path="url(#b)" fill="#67370d" fill-opacity="0"/> <path d="m749.12 767.98c-6.535 1.279-19.796 3.738-25.357-1.619l0.703-0.712c5.007 5.08 17.932 2.628 24.462 1.35l0.192 0.981z" clip-path="url(#b)" fill="#67370d" fill-opacity="0"/> <path d="m723.76 766.36c-7.175-7.779 12.032-12.672 15.773-12.614l-4e-3 0.2c-3.693-0.063-22.222 5.326-15.066 11.702l-0.703 0.712z" clip-path="url(#b)" fill="#67370d" fill-opacity="0"/> <path d="m842.07 789.87c3.42 0 6.353 2.33 9.797 0.546 10.278-5.324-8.196-12.571-12.182-12.593-6.437-0.035-16.266 5.8-7.183 12.125 1.791 1.247 7.252-0.388 9.568-0.078z" clip-path="url(#b)" fill="#8b4e13" fill-rule="evenodd"/> <path d="m842.07 789.77c3.454 7e-3 6.396 1.932 9.567 0.202l0.46 0.888c-3.716 1.838-6.642-0.896-10.027-0.889v-0.201z" clip-path="url(#b)" fill="#67370d" fill-opacity="0"/> <path d="m851.64 789.97c10.089-4.607-8.12-11.651-11.955-11.649l5e-3 -1c4.138 0.046 22.877 7.496 12.41 13.537l-0.46-0.888z" clip-path="url(#b)" fill="#67370d" fill-opacity="0"/> <path d="m839.68 778.32c-6.266-0.064-15.764 5.331-6.895 11.214l-0.571 0.821c-9.296-6.765 0.864-13.041 7.471-13.035l-5e-3 1z" clip-path="url(#b)" fill="#67370d" fill-opacity="0"/> <path d="m832.79 789.54c1.48 1.159 6.95-0.075 9.296 0.234l-0.026 0.199c-2.287-0.311-7.737 1.725-9.841 0.388l0.571-0.821z" clip-path="url(#b)" fill="#67370d" fill-opacity="0"/> <path d="m1213.1 727.49c3.798-1.897 7.713-4.87 12.261-3.917 13.057 2.737 0.832 18.614-5.533 21.141-3.793 1.505-10.157 2.9-14.098 1.299-6.656-2.702-8.64-11.063-3.367-16.228 3.218-3.152 6.855-1.06 10.737-2.295z" clip-path="url(#b)" fill="#8b4e13" fill-rule="evenodd"/> <path d="m1213 727.4c3.789-1.892 7.641-5.267 12.407-4.317l-0.205 0.978c-4.329-0.956-8.306 1.616-12.113 3.518l-0.089-0.179z" clip-path="url(#b)" fill="#67370d" fill-opacity="0"/> <path d="m1225.4 723.08c13.455 3.204 1.082 19.458-5.45 22.094l-0.369-0.929c6.197-2.417 18.275-17.917 5.614-20.187l0.205-0.978z" clip-path="url(#b)" fill="#67370d" fill-opacity="0"/> <path d="m1220 745.18c-3.841 1.522-10.352 2.936-14.472 1.299l0.377-0.927c3.763 1.564 9.979 0.188 13.726-1.301l0.369 0.929z" clip-path="url(#b)" fill="#67370d" fill-opacity="0"/> <path d="m1205.5 746.48c-6.861-2.858-8.937-11.645-3.528-17.049l0.7 0.714c-5.137 4.926-3.244 12.861 3.205 15.408l-0.377 0.927z" clip-path="url(#b)" fill="#67370d" fill-opacity="0"/> <path d="m1202 729.43c3.492-3.289 7.216-0.802 11.057-2.033l0.061 0.19c-3.924 1.239-7.473-0.458-10.418 2.557l-0.7-0.714z" clip-path="url(#b)" fill="#67370d" fill-opacity="0"/> <path d="m1278.1 693.14c2.276-1.519 5.133-4.424 7.984-4.295 11.708 0.526 1.747 15.811-2.963 18.577-7.085 4.16-19.736 1.025-14.208-9.167 1.566-2.889 6.322-3.58 9.187-5.115z" clip-path="url(#b)" fill="#8b4e13" fill-rule="evenodd"/> <path d="m1278 693.06c2.267-1.511 4.97-4.789 8.063-4.711l-0.045 0.999c-2.61-0.178-5.621 2.353-7.907 3.879l-0.111-0.167z" clip-path="url(#b)" fill="#67370d" fill-opacity="0"/> <path d="m1286.1 688.34c12.182 0.971 2.112 16.627-2.733 19.508l-0.506-0.862c4.575-2.65 14.427-17.565 3.194-17.647l0.045-0.999z" clip-path="url(#b)" fill="#67370d" fill-opacity="0"/> <path d="m1283.4 707.85c-7.312 4.229-20.43 0.83-14.901-9.837l0.879 0.477c-5.526 9.718 6.659 12.59 13.516 8.498l0.506 0.862z" clip-path="url(#b)" fill="#67370d" fill-opacity="0"/> <path d="m1268.5 698.02c1.76-3.085 6.734-3.437 9.58-4.965l0.094 0.177c-2.884 1.543-7.422 2.574-8.795 5.265l-0.879-0.477z" clip-path="url(#b)" fill="#67370d" fill-opacity="0"/> <path d="m1339.5 628.37c1.289-11.488 0-26.973 0-38.533-7e-3 -2e-3 -48.542-21.057-70.404-19.503-31.451 2.235-66.211 32.12-95.144 44.651-36.777 15.928-85.181 40.063-124.2 49.198-40.42 9.461-96.402 11.029-137.91 11.291-36.131 0.228-84.725-1.053-120.17-8.065-42.668-8.441-94.363-39.423-137.23-46.771-19.203-3.292-45.434-1.531-64.906-2.188 0.011 14.228-2.088 33.357 0.035 47.426 2.902 19.226 8.932 45.547 19.674 61.754 9.825 14.823 29.591 29.608 44.814 38.802 31.785 19.197 80.356 33.17 116.4 42.081 42.319 10.46 100.43 17.936 144 19.466 42.925 1.509 100.36-3.076 142.88-9.133 26.706-3.804 62.032-11.299 87.9-18.95 23.938-7.081 55.25-18.795 77.828-29.444 14.636-6.903 33.737-17.201 46.989-26.487 11.524-8.074 26.711-19.602 35.678-30.445 9.205-11.131 18.555-28.398 23.786-41.862 4.826-12.423 8.502-30.044 9.989-43.288" clip-path="url(#b)" fill="#b6671c" fill-opacity="0" fill-rule="evenodd"/> <path d="m1339.5 589.84v0c0 11.56 1.289 27.045 0 38.533-1.487 13.244-5.163 30.865-9.989 43.288-5.231 13.464-14.581 30.731-23.786 41.862-8.967 10.843-24.154 22.371-35.678 30.445-13.252 9.286-32.353 19.584-46.989 26.487-22.578 10.649-53.89 22.363-77.828 29.444-25.868 7.651-61.194 15.146-87.9 18.95-42.522 6.057-99.955 10.642-142.88 9.133-43.565-1.53-101.68-9.006-144-19.466-36.048-8.911-84.619-22.884-116.4-42.081-15.223-9.194-34.989-23.979-44.814-38.802-10.742-16.207-16.772-42.528-19.674-61.754-2.123-14.069-0.024-33.198-0.035-47.426v0c19.472 0.657 45.703-1.104 64.906 2.188 42.87 7.348 94.565 38.33 137.23 46.771 35.446 7.012 84.04 8.293 120.17 8.065 41.512-0.262 97.494-1.83 137.91-11.291 39.023-9.135 87.427-33.27 124.2-49.198 28.933-12.531 63.693-42.416 95.144-44.651 21.862-1.554 70.397 19.501 70.404 19.503" clip-path="url(#b)" fill="none" stroke="#67370d" stroke-linecap="round" stroke-linejoin="round" stroke-width="10"/> <path d="m670.46 648.48c22.935 12.537 54.01 28.468 78.075 38.669 34.07 14.442 80.633 31.302 116.38 40.879 22.24 5.959 52.437 12.242 75.332 14.689 22.356 2.39 52.597 4.174 74.928 1.561 25.007-2.927 57.407-13.011 81.17-21.334 20.994-7.352 48.293-19.299 67.859-29.879 20.748-11.22 47.266-28.431 65.869-42.933 13.394-10.441 30.449-25.555 41.756-38.227 10.173-11.402 20.996-28.818 29.994-41.168v0c-43.363 6.8-100.74 19.904-144.54 22.666-51.151 3.225-119.62-9.132-170.75-5.554-42.148 2.95-96.624 22.009-138.84 23.602-43.69 1.648-101.81-19.819-145.1-13.662-23.02 3.275-50.985 18.551-72.836 26.501v0c0.059-0.145 28.244 17.376 40.709 24.19z" fill="#fdd717" fill-rule="evenodd" stroke="#67370d" stroke-linecap="round" stroke-linejoin="round" stroke-width="10"/> <path d="m1127.3 667.01c5.029-4.529 9.777-12.399 13.967-17.713-8e-3 -4e-3 -55.035-25.693-79.705-33.824-20.137-6.637-47.501-15.518-68.67-16.714-15.996-0.903-38.047 0.547-53.047 6.177-19.547 7.337-40.953 26.618-56.816 40.194-8.993 7.696-19.434 19.627-27.763 28.038 9.208 4.826 21.156 11.95 30.694 16.086 15.562 6.747 37.03 14.256 53.523 18.219 10.37 2.492 24.481 5.094 35.142 5.37 11.335 0.293 26.43-1.883 37.6-3.827 16.061-2.796 37.102-8.533 52.671-13.368 12.184-3.784 28.495-8.976 39.932-14.63 7.122-3.521 16.569-8.693 22.472-14.008" fill="#f7a824" fill-rule="evenodd"/> <path d="m1141.3 649.29v0c-4.19 5.314-8.938 13.184-13.967 17.713-5.903 5.315-15.35 10.487-22.472 14.008-11.437 5.654-27.748 10.846-39.932 14.63-15.569 4.835-36.61 10.572-52.671 13.368-11.17 1.944-26.265 4.12-37.6 3.827-10.661-0.276-24.772-2.878-35.142-5.37-16.493-3.963-37.961-11.472-53.523-18.219-9.538-4.136-21.486-11.26-30.694-16.086v0c8.329-8.411 18.77-20.342 27.763-28.038 15.863-13.576 37.269-32.857 56.816-40.194 15-5.63 37.051-7.08 53.047-6.177 21.169 1.196 48.533 10.077 68.67 16.714 24.67 8.131 79.697 33.82 79.705 33.824" fill="none" stroke="#67370d" stroke-linecap="round" stroke-linejoin="round" stroke-opacity="0" stroke-width="10"/> <clipPath id="c"> <path d="m571.14 532.99c-9.287 10.87-19.551 27.305-25.259 40.414-2.297 5.276-4.958 12.666-5.412 18.403-0.466 5.876 0.128 14.101 2.526 19.486 3.368 7.563 11.751 15.637 18.403 20.568 7.467 5.535 19.214 10.404 28.163 12.917 8.65 2.429 20.778 4.197 29.739 3.54 8.557-0.627 19.705-4.113 27.615-7.435 8.65-3.632 18.694-11.399 26.907-15.931 6.51-3.592 14.931-9.149 22.035-11.341 6.608-2.039 15.96-3.2 22.869-2.895 5.495 0.243 13.024 1.307 17.947 3.763 7.26 3.623 14.363 12.375 19.973 18.237 8.103 8.467 16.5 21.928 24.895 30.105 6.82 6.643 16.192 15.82 24.894 19.684 9.007 3.999 22.554 5.712 32.404 5.391 11.52-0.375 26.576-4.908 37.353-8.997 10.127-3.842 23.126-10.555 31.9-16.905 7.182-5.196 15.34-13.903 21.416-20.357 6.456-6.859 13.095-17.854 20.203-24.035 4.965-4.317 12.191-9.848 18.461-11.843 9.96-3.168 24.577-2.715 34.832-0.696 9.37 1.845 20.911 7.902 29.259 12.539 10.62 5.899 23.202 16.283 33.091 23.338 6.21 4.43 13.738 11.591 20.626 14.868 10.43 4.962 25.784 8.935 37.323 9.449 10.894 0.485 25.755-1.685 35.906-5.67 10.172-3.993 22.53-12.566 30.236-20.315 5.683-5.714 10.523-15.584 15.118-22.205 4.059-5.847 8.154-14.91 13.701-19.37 4.105-3.3 10.896-6.068 16.063-7.087 9.889-1.949 23.71-0.321 33.544 1.89 8.186 1.841 18.144 7.361 25.973 10.38 9.711 3.745 22.237 10.498 32.525 12.071 8.76 1.339 21.347 2.113 29.508-1.341 7.733-3.274 16.467-11.721 20.454-19.113 3.493-6.478 4.814-16.797 4.359-24.142-0.669-10.795-6.837-24.397-11.401-34.202-4.63-9.948-12.854-22.172-19.113-31.184-4.212-6.066-9.884-14.21-15.089-19.449-2.568-2.584-6.276-5.828-9.428-7.653-3.538-2.048-8.702-4.183-12.735-4.851-4.49-0.744-10.615 0.35-15.16 0.607-35.705 2.014-83.307 5.313-118.84 9.38-26.137 2.992-60.603 9.903-86.745 12.851-49.217 5.552-115.17 10.051-164.66 12.048-98.641 3.982-230.35 0.689-329.07 0.984 0.033-0.13-20.214 15.795-27.314 24.104z" fill="#bed34e" fill-rule="evenodd"/> </clipPath> <path d="m571.14 532.99c-9.287 10.87-19.551 27.305-25.259 40.414-2.297 5.276-4.958 12.666-5.412 18.403-0.466 5.876 0.128 14.101 2.526 19.486 3.368 7.563 11.751 15.637 18.403 20.568 7.467 5.535 19.214 10.404 28.163 12.917 8.65 2.429 20.778 4.197 29.739 3.54 8.557-0.627 19.705-4.113 27.615-7.435 8.65-3.632 18.694-11.399 26.907-15.931 6.51-3.592 14.931-9.149 22.035-11.341 6.608-2.039 15.96-3.2 22.869-2.895 5.495 0.243 13.024 1.307 17.947 3.763 7.26 3.623 14.363 12.375 19.973 18.237 8.103 8.467 16.5 21.928 24.895 30.105 6.82 6.643 16.192 15.82 24.894 19.684 9.007 3.999 22.554 5.712 32.404 5.391 11.52-0.375 26.576-4.908 37.353-8.997 10.127-3.842 23.126-10.555 31.9-16.905 7.182-5.196 15.34-13.903 21.416-20.357 6.456-6.859 13.095-17.854 20.203-24.035 4.965-4.317 12.191-9.848 18.461-11.843 9.96-3.168 24.577-2.715 34.832-0.696 9.37 1.845 20.911 7.902 29.259 12.539 10.62 5.899 23.202 16.283 33.091 23.338 6.21 4.43 13.738 11.591 20.626 14.868 10.43 4.962 25.784 8.935 37.323 9.449 10.894 0.485 25.755-1.685 35.906-5.67 10.172-3.993 22.53-12.566 30.236-20.315 5.683-5.714 10.523-15.584 15.118-22.205 4.059-5.847 8.154-14.91 13.701-19.37 4.105-3.3 10.896-6.068 16.063-7.087 9.889-1.949 23.71-0.321 33.544 1.89 8.186 1.841 18.144 7.361 25.973 10.38 9.711 3.745 22.237 10.498 32.525 12.071 8.76 1.339 21.347 2.113 29.508-1.341 7.733-3.274 16.467-11.721 20.454-19.113 3.493-6.478 4.814-16.797 4.359-24.142-0.669-10.795-6.837-24.397-11.401-34.202-4.63-9.948-12.854-22.172-19.113-31.184-4.212-6.066-9.884-14.21-15.089-19.449-2.568-2.584-6.276-5.828-9.428-7.653-3.538-2.048-8.702-4.183-12.735-4.851-4.49-0.744-10.615 0.35-15.16 0.607-35.705 2.014-83.307 5.313-118.84 9.38-26.137 2.992-60.603 9.903-86.745 12.851-49.217 5.552-115.17 10.051-164.66 12.048-98.641 3.982-230.35 0.689-329.07 0.984v0c0.033-0.13-20.214 15.795-27.314 24.104z" fill="#bed34e" fill-rule="evenodd" stroke="#67370d" stroke-linecap="round" stroke-linejoin="round" stroke-width="10"/> <path d="m928.17 577.14c3.176-4.291 6.18-10.816 8.829-15.451-0.035-5e-3 -243.56-36.397-347.95-51.996-2.223 8.168-5.372 19.011-7.412 27.227-1.699 6.843-4.233 15.939-5.169 22.927-0.735 5.487-1.977 13.002-0.899 18.432 0.559 2.814 1.968 6.576 3.821 8.766 3.108 3.673 9.178 6.705 13.711 8.317 7.739 2.752 18.986 3.296 27.198 3.147 10.309-0.187 23.863-3.222 33.941-5.395 7.58-1.634 17.393-5.011 24.951-6.743 6.69-1.534 15.674-3.359 22.477-4.271 5.442-0.729 12.752-1.437 18.243-1.48 5.318-0.042 12.451 0.233 17.689 1.149 5.372 0.938 12.421 2.969 17.46 5.054 6.414 2.653 14.579 7.204 20.216 11.256 3.447 2.479 7.642 6.34 10.567 9.419 3.637 3.83 7.229 10.042 10.969 13.771 3.541 3.531 8.693 7.918 13.054 10.367 3.115 1.749 7.636 3.498 11.134 4.222 5.248 1.086 12.519 1.096 17.853 0.576 5.589-0.544 12.972-2.269 18.237-4.223 7.103-2.636 15.994-7.667 22.272-11.908 7.743-5.232 16.58-14.164 23.789-20.111 4.157-3.429 10.032-7.611 13.979-11.281 3.545-3.296 8.155-7.881 11.036-11.771" clip-path="url(#c)" fill="#8ebb49" fill-rule="evenodd"/> <path d="m937 561.68v0c-2.649 4.635-5.653 11.16-8.829 15.451-2.881 3.89-7.491 8.475-11.036 11.771-3.947 3.67-9.822 7.852-13.979 11.281-7.209 5.947-16.046 14.879-23.789 20.111-6.278 4.241-15.169 9.272-22.272 11.908-5.265 1.954-12.648 3.679-18.237 4.223-5.334 0.52-12.605 0.51-17.853-0.576-3.498-0.724-8.019-2.473-11.134-4.222-4.361-2.449-9.513-6.836-13.054-10.367-3.74-3.729-7.332-9.941-10.969-13.771-2.925-3.079-7.12-6.94-10.567-9.419-5.637-4.052-13.802-8.603-20.216-11.256-5.039-2.085-12.088-4.116-17.46-5.054-5.238-0.916-12.371-1.191-17.689-1.149-5.491 0.043-12.801 0.751-18.243 1.48-6.803 0.912-15.787 2.737-22.477 4.271-7.558 1.732-17.371 5.109-24.951 6.743-10.078 2.173-23.632 5.208-33.941 5.395-8.212 0.149-19.459-0.395-27.198-3.147-4.533-1.612-10.603-4.644-13.711-8.317-1.853-2.19-3.262-5.952-3.821-8.766-1.078-5.43 0.164-12.945 0.899-18.432 0.936-6.988 3.47-16.084 5.169-22.927 2.04-8.216 5.189-19.059 7.412-27.227v0c104.38 15.599 347.91 51.991 347.95 51.996" clip-path="url(#c)" fill="none" stroke="#67370d" stroke-linecap="round" stroke-linejoin="round" stroke-opacity="0" stroke-width="10"/> <path d="m1219.8 542.37c1.378-3.46 1.626-8.536 2.323-12.194-7e-3 1e-3 -49.295 8.195-70.553 10.742-22.918 2.746-54.119 1.663-76.65 6.678-15.068 3.354-33.946 12.046-48.495 17.209 3.357 3.229 7.426 8.02 11.189 10.765 4.699 3.429 11.987 6.368 17.125 9.097 7.706 4.094 17.807 9.898 25.687 13.647 8.967 4.265 20.931 10.208 30.504 12.844 5.637 1.552 13.419 3.022 19.265 2.943 5.873-0.079 13.804-1.319 19.266-3.478 5.88-2.326 12.713-7.569 17.66-11.506 5.864-4.666 12.688-12.037 17.928-17.393 6.277-6.415 14.048-15.538 20.336-21.941 2.586-2.633 6.51-5.693 8.83-8.563 1.974-2.441 4.424-5.933 5.585-8.85" clip-path="url(#c)" fill="#8ebb49" fill-rule="evenodd"/> <path d="m1222.1 530.17v0c-0.697 3.658-0.945 8.734-2.323 12.194-1.161 2.917-3.611 6.409-5.585 8.85-2.32 2.87-6.244 5.93-8.83 8.563-6.288 6.403-14.059 15.526-20.336 21.941-5.24 5.356-12.064 12.727-17.928 17.393-4.947 3.937-11.78 9.18-17.66 11.506-5.462 2.159-13.393 3.399-19.266 3.478-5.846 0.079-13.628-1.391-19.265-2.943-9.573-2.636-21.537-8.579-30.504-12.844-7.88-3.749-17.981-9.553-25.687-13.647-5.138-2.729-12.426-5.668-17.125-9.097-3.763-2.745-7.832-7.536-11.189-10.765v0c14.549-5.163 33.427-13.855 48.495-17.209 22.531-5.015 53.732-3.932 76.65-6.678 21.258-2.547 70.546-10.741 70.553-10.742" clip-path="url(#c)" fill="none" stroke="#67370d" stroke-linecap="round" stroke-linejoin="round" stroke-opacity="0" stroke-width="10"/> <path d="m1324.8 478.66v0c10.236 10.831 27.688 22.66 34.118 36.103 0.743 1.553 1.373 3.879 1.264 5.596-0.193 3.031-2.625 6.583-3.791 9.387-1.426 3.428-3.398 7.967-4.874 11.373-1.717 3.961-3.063 9.822-5.777 13.178-2.118 2.619-5.84 5.585-9.026 6.679-2.307 0.793-5.692 0.562-8.123 0.361-3.483-0.287-8.108-1.281-11.373-2.527-3.897-1.488-8.436-4.855-12.095-6.86-5.905-3.236-13.513-8.21-19.857-10.47-5.573-1.985-13.447-3.219-19.315-3.971-4.896-0.628-11.499-0.632-16.428-0.903v0c22.583-17.384 75.269-57.941 75.277-57.946v0z" clip-path="url(#c)" fill="#8ebb49" fill-rule="evenodd" stroke="#67370d" stroke-linecap="round" stroke-linejoin="round" stroke-opacity="0" stroke-width="10"/> <path d="m571.14 532.99c-9.287 10.87-19.551 27.305-25.259 40.414-2.297 5.276-4.958 12.666-5.412 18.403-0.466 5.876 0.127 14.101 2.525 19.486 3.369 7.563 11.752 15.637 18.404 20.568 7.467 5.535 19.214 10.404 28.163 12.917 8.65 2.429 20.778 4.197 29.739 3.54 8.557-0.627 19.705-4.113 27.615-7.434 8.65-3.633 18.694-11.399 26.907-15.932 6.51-3.592 14.931-9.149 22.036-11.341 6.607-2.039 15.959-3.2 22.867-2.895 5.496 0.243 13.025 1.307 17.948 3.763 7.26 3.623 14.363 12.375 19.973 18.237 8.103 8.467 16.5 21.928 24.895 30.105 6.82 6.643 16.192 15.821 24.894 19.684 9.007 3.999 22.554 5.712 32.404 5.391 11.52-0.375 26.576-4.908 37.353-8.997 10.127-3.842 23.126-10.555 31.9-16.905 7.181-5.196 15.34-13.903 21.416-20.357 6.456-6.859 13.095-17.854 20.203-24.035 4.965-4.317 12.19-9.848 18.46-11.843 9.96-3.169 24.578-2.715 34.833-0.696 9.37 1.844 20.911 7.902 29.259 12.539 10.619 5.9 23.201 16.284 33.091 23.338 6.209 4.43 13.738 11.591 20.626 14.868 10.43 4.961 25.784 8.935 37.323 9.448 10.895 0.486 25.755-1.684 35.906-5.669 10.172-3.993 22.53-12.566 30.236-20.315 5.683-5.714 10.523-15.584 15.119-22.205 4.058-5.847 8.153-14.911 13.7-19.37 4.106-3.3 10.896-6.068 16.063-7.086 9.889-1.95 23.71-0.322 33.544 1.889 8.187 1.841 18.144 7.361 25.973 10.38 9.711 3.745 22.237 10.498 32.525 12.071 8.76 1.339 21.347 2.113 29.507-1.341 7.734-3.274 16.468-11.721 20.455-19.113 3.493-6.478 4.814-16.797 4.359-24.142-0.668-10.795-6.837-24.397-11.401-34.202-4.63-9.948-12.854-22.172-19.113-31.184-4.212-6.066-9.884-14.21-15.089-19.448-2.567-2.585-6.276-5.828-9.428-7.654-3.538-2.048-8.702-4.183-12.735-4.851-4.49-0.744-10.615 0.35-15.16 0.606-35.705 2.015-83.307 5.314-118.84 9.381-26.137 2.992-60.604 9.903-86.746 12.852-49.217 5.551-115.17 10.05-164.66 12.048-98.642 3.981-230.35 0.688-329.07 0.983v0c0.033-0.13-20.214 15.795-27.314 24.104z" clip-path="url(#c)" fill="#bed34e" fill-opacity="0" fill-rule="evenodd" stroke="#67370d" stroke-linecap="round" stroke-linejoin="round" stroke-width="10"/> <clipPath id="a"> <path d="m593.7 393.45c-5.454 19.25-10.302 45.886-10.296 65.895 5e-3 16.556 1.319 39.527 8.237 54.569 5.04 10.959 15.752 24.126 25.741 30.888 19.92 13.488 53.503 17.589 77.22 21.622 64.615 10.988 152.74 10.023 218.28 9.266 61.903-0.714 144.44-6.149 205.92-13.384 33.891-3.989 79.142-10.177 112.23-18.533 17.994-4.545 43.053-9.565 58.688-19.563 9.979-6.382 22.388-17.572 27.655-28.182 11.449-23.064 10.439-59.828 7.974-85.458-2.897-30.126-15.478-69.538-28.949-96.64-15.165-30.512-43.381-67.256-67.428-91.396-16.246-16.31-40.997-35.186-61.06-46.474-19.827-11.154-48.709-21.459-70.57-27.752-26.498-7.628-62.933-14.143-90.393-16.651-27.48-2.511-64.567-3.156-91.98 0-30.838 3.55-71.585 13.021-100.7 23.787-20.091 7.429-45.612 20.771-63.734 32.191-22.392 14.112-51.158 35.222-69.643 54.167-15.268 15.649-31.909 39.921-43.614 58.387-6.309 9.952-13.456 23.987-18.727 34.525-1.775 3.548-3.988 8.355-5.592 11.983-0.227-0.339-15.121 32.158-19.257 46.753z" fill="#f7a846" fill-rule="evenodd"/> </clipPath> <path d="m593.7 393.45c-5.454 19.25-10.302 45.886-10.296 65.895 5e-3 16.556 1.319 39.527 8.237 54.569 5.04 10.959 15.752 24.126 25.741 30.888 19.92 13.488 53.503 17.589 77.22 21.622 64.615 10.988 152.74 10.023 218.28 9.266 61.903-0.714 144.44-6.149 205.92-13.384 33.891-3.989 79.142-10.177 112.23-18.533 17.994-4.545 43.053-9.565 58.688-19.563 9.979-6.382 22.388-17.572 27.655-28.182 11.449-23.064 10.439-59.828 7.974-85.458-2.897-30.126-15.478-69.538-28.949-96.64-15.165-30.512-43.381-67.256-67.428-91.396-16.246-16.31-40.997-35.186-61.06-46.474-19.827-11.154-48.709-21.459-70.57-27.752-26.498-7.628-62.933-14.143-90.393-16.651-27.48-2.511-64.567-3.156-91.98 0-30.838 3.55-71.585 13.021-100.7 23.787-20.091 7.429-45.612 20.771-63.734 32.191-22.392 14.112-51.158 35.222-69.643 54.167-15.268 15.649-31.909 39.921-43.614 58.387-6.309 9.952-13.456 23.987-18.727 34.525-1.775 3.548-3.988 8.355-5.592 11.983-0.227-0.339-15.121 32.158-19.257 46.753z" fill="#f7a846" fill-rule="evenodd" stroke="#67370d" stroke-linecap="round" stroke-linejoin="round" stroke-width="10"/> <path d="m1304.3 467.1c10.663-7.309 23.909-18.392 34.156-26.274-1e-3 5e-3 -2.177 36.497-7.994 50.78-5.973 14.667-17.891 33.576-30.614 43.006-24.132 17.887-66.78 21.733-96.219 27.7-59.714 12.102-141.1 18.129-201.91 21.867-55.228 3.396-129.1 4.317-184.42 2.916-34.192-0.866-79.898-2.504-113.78-7.15-18.769-2.574-43.969-6.449-61.867-12.658-12.22-4.239-28.97-10.478-38.7-18.998-10.66-9.333-21.314-26.045-26.035-39.403-5.788-16.38-5.741-40.345-4.925-57.698 1.07-22.746 7.159-52.89 14.072-74.586 7.285-22.858 21.437-51.873 33.47-72.629 12.868-22.195 32.077-50.95 49.707-69.589 12.525-13.243 32.131-27.974 47.055-38.439 13.044-9.146 31.321-20.128 45.544-27.304 7.908-3.989 19.016-8.092 27.166-11.559-15.103 17.533-37.661 39.089-50.344 58.445-9.356 14.277-19.656 34.885-25.098 51.064-5.694 16.929-10.653 40.605-11.298 58.454-0.632 17.5 2.258 41.073 6.877 57.964 3.489 12.758 11.078 28.9 17.478 40.476 4.74 8.574 12.189 19.395 18.351 27.011 7.843 9.694 19.367 21.826 28.868 29.9 11.069 9.406 27.268 20.253 39.885 27.45 12.482 7.12 29.939 15.271 43.456 20.15 13.676 4.935 32.574 9.659 46.856 12.381 12.895 2.458 30.346 4.334 43.442 5.228 12.621 0.862 29.514 1.021 42.16 0.715 11.096-0.27 25.879-1.256 36.921-2.382 19.892-2.03 46.303-5.895 65.965-9.528 25.137-4.646 58.327-12.552 83.082-18.93 19.599-5.05 45.635-12.237 64.854-18.58 11.704-3.863 27.456-8.851 38.524-14.274 8.001-3.92 17.97-10.488 25.319-15.526" clip-path="url(#a)" fill="#f39437" fill-rule="evenodd"/> <path d="m1338.4 440.83v0c-10.247 7.882-23.493 18.965-34.156 26.274-7.349 5.038-17.318 11.606-25.319 15.526-11.068 5.423-26.82 10.411-38.524 14.274-19.219 6.343-45.255 13.53-64.854 18.58-24.755 6.378-57.945 14.284-83.082 18.93-19.662 3.633-46.073 7.498-65.965 9.528-11.042 1.126-25.825 2.112-36.921 2.382-12.646 0.306-29.539 0.147-42.16-0.715-13.096-0.894-30.547-2.77-43.442-5.228-14.282-2.722-33.18-7.446-46.856-12.381-13.517-4.879-30.974-13.03-43.456-20.15-12.617-7.197-28.816-18.044-39.885-27.45-9.501-8.074-21.025-20.206-28.868-29.9-6.162-7.616-13.611-18.437-18.351-27.011-6.4-11.576-13.989-27.718-17.478-40.476-4.619-16.891-7.509-40.464-6.877-57.964 0.645-17.849 5.604-41.525 11.298-58.454 5.442-16.179 15.742-36.787 25.098-51.064 12.683-19.356 35.241-40.912 50.344-58.445v0c-8.15 3.467-19.258 7.57-27.166 11.559-14.223 7.176-32.5 18.158-45.544 27.304-14.924 10.465-34.53 25.196-47.055 38.439-17.63 18.639-36.839 47.394-49.707 69.589-12.033 20.756-26.185 49.771-33.47 72.629-6.913 21.696-13.002 51.84-14.072 74.586-0.816 17.353-0.863 41.318 4.925 57.698 4.721 13.358 15.375 30.07 26.035 39.403 9.73 8.52 26.48 14.759 38.7 18.998 17.898 6.209 43.098 10.084 61.867 12.658 33.885 4.646 79.591 6.284 113.78 7.15 55.314 1.401 129.19 0.48 184.42-2.916 60.813-3.738 142.2-9.765 201.91-21.867 29.439-5.967 72.087-9.813 96.219-27.7 12.723-9.43 24.641-28.339 30.614-43.006 5.817-14.283 7.993-50.775 7.994-50.78" clip-path="url(#a)" fill="none" stroke="#67370d" stroke-linecap="round" stroke-linejoin="round" stroke-opacity="0" stroke-width="10"/> <path d="m1177.8 235.52c4.136 3.481 9.373 8.456 13.107 12.365 5.238 5.483 11.793 13.211 16.419 19.22 4.665 6.06 10.246 14.609 14.5 20.964 3.752 5.605 8.505 13.243 12.228 18.867 2.58 3.896 5.916 9.166 8.715 12.906 2.9 3.875 6.849 9.019 10.285 12.427 0.534 0.53 1.259 1.245 1.904 1.632 0.797 0.477 1.979 0.937 2.893 1.102 1.18 0.212 2.828 0.203 3.995-0.069 1.18-0.275 2.692-0.982 3.651-1.722 0.836-0.646 1.802-1.742 2.273-2.687 0.623-1.248 1.008-3.153 0.965-4.546s-0.801-3.155-1.241-4.477c-1.138-3.423-3.05-7.846-4.477-11.159-1.631-3.788-3.857-8.823-5.762-12.48-2.976-5.713-7.323-13.142-10.898-18.501-3.721-5.579-9.233-12.64-13.432-17.868-3.291-4.097-7.761-9.507-11.382-13.316-4.065-4.274-9.85-9.621-14.301-13.49-3.954-3.438-9.377-7.861-13.626-10.928-5.579-4.028-13.305-9.016-19.291-12.411-3.28-1.86-7.777-4.128-11.227-5.65-1.323-0.583-3.074-1.458-4.489-1.756-1.185-0.25-2.845-0.429-4.033-0.196-1.097 0.216-2.563 0.802-3.384 1.562-1.025 0.949-1.879 2.741-2.211 4.098-0.246 1.005-0.094 2.418 0 3.448 0.051 0.572 0.114 1.353 0.325 1.887 0.448 1.133 1.446 2.492 2.342 3.318 1.433 1.322 3.976 2.208 5.661 3.189 1.83 1.066 4.26 2.508 6.05 3.643 0.806 0.512 1.858 1.231 2.654 1.759v0c0.012-0.01 8.401 6.02 11.787 8.869z" clip-path="url(#a)" fill="#fccc79" fill-rule="evenodd" stroke="#67370d" stroke-linecap="round" stroke-linejoin="round" stroke-opacity="0" stroke-width="10"/> <path d="m1285 361.38c0.217 2.051 0.531 4.791 0.958 6.809 0.503 2.371 1.842 5.374 2.234 7.766 0.584 3.562 0.885 8.443 0.426 12.023-0.27 2.105-0.589 5.153-1.915 6.809-1.01 1.261-3.081 2.441-4.681 2.66-1.266 0.173-3.066-0.281-4.15-0.958-1.603-1-2.937-3.335-3.83-5-0.83-1.548-1.269-3.899-1.915-5.533-1.083-2.736-3.18-6.124-4.043-8.937-1.017-3.31-1.694-7.927-1.915-11.384-0.178-2.773-0.731-6.684 0.319-9.256 0.786-1.927 2.714-4.283 4.575-5.213 1.861-0.931 4.887-0.994 6.916-0.532 1.42 0.323 3.193 1.344 4.255 2.341 0.804 0.753 1.597 2.05 2.016 3.068 0.289 0.705 0.373 1.738 0.533 2.483v0c1e-3 -6e-3 0.127 2 0.217 2.854z" clip-path="url(#a)" fill="#fccc79" fill-rule="evenodd" stroke="#67370d" stroke-linecap="round" stroke-linejoin="round" stroke-opacity="0" stroke-width="10"/> <path d="m1088.2 187.41c-4.085-2.729-6.462-5.268-12.061-4.654-7.733 0.847-2.811 10.229 0.424 12.906 1.72 1.424 5.833 4.247 7.955 4.469 9.798 1.023 8.329-7.81 3.682-12.721z" clip-path="url(#a)" fill="#fbee87" fill-rule="evenodd"/> <path d="m1088.2 187.49c-4.093-2.735-6.524-4.865-11.952-4.24l-0.109-0.994c5.771-0.603 8.095 2.344 12.172 5.068l-0.111 0.166z" clip-path="url(#a)" fill="#67370d" fill-opacity="0"/> <path d="m1076.2 183.25c-7.305 0.483-2.451 9.452 0.689 12.024l-0.638 0.77c-3.33-2.782-8.32-12.576-0.16-13.788l0.109 0.994z" clip-path="url(#a)" fill="#67370d" fill-opacity="0"/> <path d="m1076.9 195.27c1.696 1.405 5.733 4.183 7.688 4.356l-0.104 0.995c-2.289-0.269-6.477-3.137-8.222-4.581l0.638-0.77z" clip-path="url(#a)" fill="#67370d" fill-opacity="0"/> <path d="m1084.6 199.63c9.404 1.156 8.185-7.271 3.558-12.154l0.145-0.138c4.665 4.939 6.385 14.178-3.807 13.287l0.104-0.995z" clip-path="url(#a)" fill="#67370d" fill-opacity="0"/> <path d="m1026.3 149.65c5.422 0.908 13.02 15.546 3.258 14.778-8.57-0.674-15.964-14.778-3.258-14.778z" clip-path="url(#a)" fill="#fbee87" fill-rule="evenodd"/> <path d="m1026.3 149.55c5.482 0.943 13.497 15.722 3.202 15.376l0.078-0.997c9.229 1.189 2.049-13.308-3.313-14.181l0.033-0.198z" clip-path="url(#a)" fill="#67370d" fill-opacity="0"/> <path d="m1029.5 164.92c-8.87-0.806-16.018-15.312-3.219-15.377v0.2c-12.612-0.065-4.972 13.637 3.297 14.18l-0.078 0.997z" clip-path="url(#a)" fill="#67370d" fill-opacity="0"/> <path d="m1038.2 231.25c1.748 1.75 4.533 1.645 5.337 4.575 2.155 7.848-8.957 5.606-12.377 2.336-4.485-4.29 2.914-10.834 7.04-6.911z" clip-path="url(#a)" fill="#fbee87" fill-rule="evenodd"/> <path d="m1038.2 231.18c1.711 1.727 4.771 1.324 5.749 4.513l-0.965 0.265c-0.631-2.669-3.141-2.863-4.926-4.636l0.142-0.142z" clip-path="url(#a)" fill="#67370d" fill-opacity="0"/> <path d="m1044 235.69c1.938 8.405-9.618 6.207-13.205 2.83l0.691-0.723c3.251 3.165 13.921 5.45 11.549-1.842l0.965-0.265z" clip-path="url(#a)" fill="#67370d" fill-opacity="0"/> <path d="m1030.8 238.52c-4.623-4.781 3.237-11.292 7.454-7.345l-0.138 0.145c-4.034-3.897-10.973 2.679-6.625 6.477l-0.691 0.723z" clip-path="url(#a)" fill="#67370d" fill-opacity="0"/> <path d="m970.09 200.37c0.496-0.248 3.057 3.152 3.354 3.529 1.727 2.199 10.095 10.022 4.667 12.77-8.377 4.241-21.086-16.35-8.021-16.299z" clip-path="url(#a)" fill="#fbee87" fill-rule="evenodd"/> <path d="m970.05 200.28c0.613-0.228 3.501 2.94 3.792 3.31l-0.787 0.618c-0.302-0.384-2.535-4.016-2.916-3.749l-0.089-0.179z" clip-path="url(#a)" fill="#67370d" fill-opacity="0"/> <path d="m973.84 203.59c1.687 2.153 10.183 10.197 4.5 13.525l-0.452-0.892c5.172-2.168-3.066-9.77-4.835-12.015l0.787-0.618z" clip-path="url(#a)" fill="#67370d" fill-opacity="0"/> <path d="m978.34 217.12c-8.909 4.19-21.412-16.797-8.247-16.845l-1e-3 0.2c-12.964-0.149-0.049 20.044 7.796 15.753l0.452 0.892z" clip-path="url(#a)" fill="#67370d" fill-opacity="0"/> <path d="m978.73 256.54c1.842-0.614 4.24 1.957 4.731 3.487 1.472 4.584-0.709 10.273-6.151 9.865-9.053-0.679-7.962-16.369 1.42-13.352z" clip-path="url(#a)" fill="#fbee87" fill-rule="evenodd"/> <path d="m978.7 256.44c1.916-0.61 4.681 1.764 5.239 3.429l-0.952 0.306c-0.424-1.395-2.455-4.164-4.224-3.546l-0.063-0.189z" clip-path="url(#a)" fill="#67370d" fill-opacity="0"/> <path d="m983.94 259.87c1.495 4.772-0.9 10.837-6.665 10.516l0.075-0.997c5.12 0.496 7.088-4.816 5.638-9.213l0.952-0.306z" clip-path="url(#a)" fill="#67370d" fill-opacity="0"/> <path d="m977.27 270.38c-9.465-0.958-8.001-16.931 1.488-13.946l-0.061 0.191c-9.274-3.049-9.993 12.359-1.352 12.758l-0.075 0.997z" clip-path="url(#a)" fill="#67370d" fill-opacity="0"/> <path d="m913.98 238.54c3.332 0 6.77-5.188 10.625-3.379 9.425 4.42-3.805 16.805-9.592 17.432-10.931 1.186-8.877-11.241-1.033-14.053z" clip-path="url(#a)" fill="#fbee87" fill-rule="evenodd"/> <path d="m913.98 238.44c3.271 0.021 6.56-5.541 10.838-3.732l-0.425 0.905c-3.433-1.807-7.021 3.006-10.413 3.027v-0.2z" clip-path="url(#a)" fill="#67370d" fill-opacity="0"/> <path d="m924.82 234.71c9.7 4.983-3.736 17.67-9.751 18.383l-0.108-0.995c5.558-0.543 18.584-12.625 9.434-16.483l0.425-0.905z" clip-path="url(#a)" fill="#67370d" fill-opacity="0"/> <path d="m915.07 253.1c-11.377 0.998-9.015-11.793-1.12-14.645l0.067 0.188c-7.794 2.773-9.539 14.835 0.945 13.462l0.108 0.995z" clip-path="url(#a)" fill="#67370d" fill-opacity="0"/> <path d="m882.15 176.66c-7.545 2.517-7.997 14.64 1.575 13.559 6.424-0.726 11.238-8.686 4.867-13.298-2.625-1.9-4.029-0.261-6.442-0.261z" clip-path="url(#a)" fill="#fbee87" fill-rule="evenodd"/> <path d="m882.18 176.75c-7.488 2.471-7.642 14.228 1.488 12.968l0.113 0.994c-10.015 0.903-9.265-11.587-1.664-14.151l0.063 0.189z" clip-path="url(#a)" fill="#67370d" fill-opacity="0"/> <path d="m883.67 189.72c6.175-0.624 10.798-8.127 4.63-12.396l0.586-0.81c6.575 4.956 1.57 13.373-5.103 14.2l-0.113-0.994z" clip-path="url(#a)" fill="#67370d" fill-opacity="0"/> <path d="m888.3 177.32c-2.365-1.806-3.697-0.574-6.149-0.566v-0.2c2.373 8e-3 3.849-2.038 6.735-0.044l-0.586 0.81z" clip-path="url(#a)" fill="#67370d" fill-opacity="0"/> <path d="m835.98 236.46c13.526-6.772 16.056 9.601 1.648 12.076-11.022 1.893-12.508-11.675-1.648-12.076z" clip-path="url(#a)" fill="#fbee87" fill-rule="evenodd"/> <path d="m835.94 236.37c13.621-6.769 16.523 9.957 1.777 12.658l-0.169-0.986c14.069-2.248 11.91-18.269-1.519-11.493l-0.089-0.179z" clip-path="url(#a)" fill="#67370d" fill-opacity="0"/> <path d="m837.71 249.03c-11.448 1.766-12.676-12.223-1.736-12.669l7e-3 0.2c-10.781 0.357-9.037 13.503 1.56 11.483l0.169 0.986z" clip-path="url(#a)" fill="#67370d" fill-opacity="0"/> <path d="m831.11 303.28c-23.133-1e-3 -41.795 18.661-41.795 41.794 0 23.134 18.662 41.795 41.795 41.795s41.794-18.662 41.794-41.795-18.661-41.794-41.794-41.794z" clip-path="url(#a)" fill="#67370d" fill-opacity="0" fill-rule="evenodd" stroke="#67370d" stroke-linecap="round" stroke-linejoin="round" stroke-opacity="0" stroke-width="10"/> <path d="m815.68 315.75c-6.9 0-12.467 5.567-12.466 12.467 0 6.901 5.566 12.467 12.466 12.467 6.901 0 12.467-5.566 12.467-12.467 1e-3 -6.9-5.566-12.467-12.467-12.467z" clip-path="url(#a)" fill="#fff" fill-opacity="0" fill-rule="evenodd" stroke="#67370d" stroke-linecap="round" stroke-linejoin="round" stroke-opacity="0" stroke-width="10"/> <path d="m1130.9 400.46c-34.989-1.077-51.253 17.911-51.349 34.725-0.097 16.816 15.945 35.144 50.956 35.315 33.279 0.163 48.383-16.784 48.988-32.757 0.63-16.602-14.022-36.219-48.595-37.283z" clip-path="url(#a)" fill="#ec6447" fill-opacity="0" fill-rule="evenodd" stroke="#67370d" stroke-linecap="round" stroke-linejoin="round" stroke-opacity="0" stroke-width="10"/> <path d="m821.21 400.53c-34.99-1.078-51.253 17.91-51.35 34.724-0.096 16.817 15.946 35.145 50.956 35.316 33.28 0.162 48.383-16.784 48.989-32.758 0.63-16.601-14.023-36.218-48.595-37.282z" clip-path="url(#a)" fill="#ec6447" fill-opacity="0" fill-rule="evenodd" stroke="#67370d" stroke-linecap="round" stroke-linejoin="round" stroke-opacity="0" stroke-width="10"/> <path d="m1090.8 374.69c7.086 3.475 16.548 8.08 23.64 11.543 1e-3 1e-3 10.354 5.525 14.978 7.489 1.02 0.434 2.372 1.097 3.465 1.28 1.301 0.219 3.108 0.17 4.394-0.12 1.546-0.348 3.582-1.172 4.816-2.167 1.357-1.095 2.814-3.063 3.431-4.695 0.653-1.73 0.671-4.295 0.541-6.14-0.078-1.105-0.336-2.596-0.782-3.611-0.536-1.221-1.601-2.716-2.588-3.612-0.909-0.824-2.457-1.47-3.532-2.062-3.381-1.86-8.001-4.129-11.458-5.844-4.908-2.435-11.533-5.514-16.456-7.92-7.397-3.617-17.204-8.553-24.577-12.219 17.25-11.91 40.013-28.145 57.502-39.702 1.713-1.133 4.24-2.316 5.765-3.691 0.868-0.782 1.905-1.984 2.478-3.001 0.626-1.111 1.188-2.757 1.39-4.016 0.28-1.739 0.323-4.174-0.154-5.87-0.478-1.699-1.687-3.85-2.935-5.098-1.358-1.357-3.698-2.702-5.561-3.166-1.439-0.358-3.486-0.201-4.943 0.077-1.239 0.237-2.816 0.894-3.939 1.467-1.116 0.571-2.439 1.613-3.476 2.317-4.997 3.396-11.553 8.08-16.528 11.508-14.084 9.704-33.157 22.217-47.139 32.067-3.057 2.153-7.192 4.951-10.096 7.305-1.736 1.407-4.247 3.153-5.547 4.971-0.731 1.022-1.411 2.6-1.728 3.817-0.328 1.259-0.488 3.027-0.36 4.322 0.116 1.185 0.499 2.779 1.08 3.818 0.68 1.214 2.071 2.531 3.17 3.385 1.75 1.361 4.555 2.454 6.526 3.468 8.513 4.378 20.029 9.885 28.623 14.1" clip-path="url(#a)" fill="#67370d" fill-opacity="0" fill-rule="evenodd"/> <path d="m1114.5 386.23v0c-7.092-3.463-16.554-8.068-23.64-11.543-8.594-4.215-20.11-9.722-28.623-14.1-1.971-1.014-4.776-2.107-6.526-3.468-1.099-0.854-2.49-2.171-3.17-3.385-0.581-1.039-0.964-2.633-1.08-3.818-0.128-1.295 0.032-3.063 0.36-4.322 0.317-1.217 0.997-2.795 1.728-3.817 1.3-1.818 3.811-3.564 5.547-4.971 2.904-2.354 7.039-5.152 10.096-7.305 13.982-9.85 33.055-22.363 47.139-32.067 4.975-3.428 11.531-8.112 16.528-11.508 1.037-0.704 2.36-1.746 3.476-2.317 1.123-0.573 2.7-1.23 3.939-1.467 1.457-0.278 3.504-0.435 4.943-0.077 1.863 0.464 4.203 1.809 5.561 3.166 1.248 1.248 2.457 3.399 2.935 5.098 0.477 1.696 0.434 4.131 0.154 5.87-0.202 1.259-0.764 2.905-1.39 4.016-0.573 1.017-1.61 2.219-2.478 3.001-1.525 1.375-4.052 2.558-5.765 3.691-17.489 11.557-40.252 27.792-57.502 39.702v0c7.373 3.666 17.18 8.602 24.577 12.219 4.923 2.406 11.548 5.485 16.456 7.92 3.457 1.715 8.077 3.984 11.458 5.844 1.075 0.592 2.623 1.238 3.532 2.062 0.987 0.896 2.052 2.391 2.588 3.612 0.446 1.015 0.704 2.506 0.782 3.611 0.13 1.845 0.112 4.41-0.541 6.14-0.617 1.632-2.074 3.6-3.431 4.695-1.234 0.995-3.27 1.819-4.816 2.167-1.286 0.29-3.093 0.339-4.394 0.12-1.093-0.183-2.445-0.846-3.465-1.28-4.624-1.964-14.977-7.488-14.978-7.489" clip-path="url(#a)" fill="none" stroke="#67370d" stroke-linecap="round" stroke-linejoin="round" stroke-opacity="0" stroke-width="10"/> <path d="m923.25 423.48c0.476 4.094 1.253 9.68 3.021 13.403 1.92 4.042 5.78 8.877 9.249 11.704 4.399 3.584 11.549 6.701 16.99 8.306 5.525 1.629 13.308 2.13 19.067 2.265 5.74 0.136 13.452-0.273 19.09-1.358 4.301-0.829 10.01-2.413 13.935-4.359 3.308-1.641 7.379-4.55 10.075-7.075 1.944-1.821 4.178-4.634 5.628-6.869 1.752-2.7 3.724-6.566 4.766-9.611 0.822-2.403 1.387-5.772 1.724-8.289 0.372-2.785 0.437-6.543 0.554-9.351 0.069-1.654 0-3.867 0.141-5.516 0.065-0.756 0.092-1.79 0.346-2.505 0.518-1.457 1.737-3.205 2.808-4.32 0.906-0.944 2.328-2.059 3.542-2.549 1.298-0.523 3.222-0.593 4.621-0.647 1.201-0.046 2.85-0.119 3.997 0.238 1.401 0.437 3.092 1.571 4.159 2.578 0.926 0.874 1.944 2.293 2.461 3.457 0.453 1.021 0.666 2.525 0.82 3.632 0.272 1.951 0.294 4.591 0.293 6.561-3e-3 4.456-0.053 10.437-0.795 14.831-0.756 4.48-2.39 10.384-4.203 14.55-1.858 4.269-5.194 9.581-7.981 13.311-2.365 3.166-5.892 7.145-8.883 9.728-3.809 3.29-9.437 7.094-13.958 9.305-4.506 2.204-10.997 4.065-15.862 5.288-3.354 0.843-7.908 1.68-11.35 2.02-4.114 0.406-9.644 0.284-13.778 0.249-5.457-0.047-12.784 0.162-18.177-0.665-4.795-0.734-11.049-2.567-15.605-4.233-3.637-1.33-8.382-3.446-11.719-5.41-3.253-1.915-7.379-4.87-10.162-7.422-2.825-2.591-6.249-6.456-8.394-9.632-2.296-3.399-4.673-8.381-6.186-12.194-1.106-2.789-2.269-6.64-2.872-9.579-0.483-2.352-0.759-5.553-0.94-7.947-0.193-2.555-0.296-5.974-0.279-8.536 0.016-2.371-0.047-5.56 0.359-7.896 0.203-1.173 0.585-2.741 1.106-3.811 0.645-1.323 1.78-3.001 2.897-3.96 1.043-0.895 2.75-1.703 4.057-2.125 1.019-0.328 2.457-0.515 3.527-0.531 1.373-0.02 3.246 0.119 4.539 0.579 1.122 0.399 2.487 1.292 3.381 2.077 0.774 0.679 1.633 1.78 2.174 2.657 0.541 0.878 1.117 2.147 1.401 3.139 0.157 0.55 0.202 1.318 0.289 1.883v0c-0.018 0.028-0.38 10.27 0.127 14.629z" clip-path="url(#a)" fill="#67370d" fill-opacity="0" fill-rule="evenodd" stroke="#67370d" stroke-linecap="round" stroke-linejoin="round" stroke-opacity="0" stroke-width="10"/> <path d="m593.7 393.45c-5.454 19.25-10.302 45.886-10.296 65.895 5e-3 16.556 1.319 39.527 8.237 54.569 5.04 10.959 15.752 24.126 25.741 30.888 19.92 13.488 53.503 17.589 77.22 21.622 64.615 10.988 152.74 10.023 218.28 9.266 61.903-0.714 144.44-6.149 205.92-13.384 33.891-3.989 79.142-10.177 112.23-18.533 17.994-4.545 43.053-9.565 58.688-19.563 9.979-6.382 22.388-17.572 27.655-28.182 11.449-23.064 10.439-59.828 7.974-85.458-2.897-30.126-15.478-69.538-28.949-96.64-15.165-30.512-43.381-67.256-67.428-91.396-16.246-16.31-40.997-35.186-61.06-46.474-19.827-11.154-48.709-21.459-70.57-27.752-26.498-7.628-62.933-14.143-90.393-16.651-27.48-2.511-64.567-3.156-91.98 0-30.838 3.55-71.585 13.021-100.7 23.787-20.091 7.429-45.612 20.771-63.734 32.191-22.393 14.112-51.158 35.222-69.643 54.166-15.268 15.649-31.909 39.922-43.614 58.388-6.309 9.952-13.456 23.987-18.728 34.525-1.774 3.548-3.987 8.355-5.591 11.983-0.227-0.339-15.121 32.158-19.257 46.753z" clip-path="url(#a)" fill="#f7a846" fill-opacity="0" fill-rule="evenodd" stroke="#67370d" stroke-linecap="round" stroke-linejoin="round" stroke-width="10"/> </svg>